<svg width="540" height="60" xmlns="http://www.w3.org/2000/svg" xmlns:xlink="http://www.w3.org/1999/xlink">
 <g>
  <title>background</title>
  <rect x="-1" y="-1" width="542" height="62" id="canvas_background" fill="none"/>
 </g>

 <g>
  <title>Layer 1</title>
  <g id="enabled" fill="#464646">
   <g id="edit">
    <path d="m337,30.156l0,0.407l0,5.604c0,1.658 -1.344,3 -3,3l-10,0c-1.655,0 -3,-1.342 -3,-3l0,-10c0,-1.657 1.345,-3 3,-3l6.345,0l3.19,-3.17l-9.535,0c-3.313,0 -6,2.687 -6,6l0,10c0,3.313 2.687,6 6,6l10,0c3.314,0 6,-2.687 6,-6l0,-8.809l-3,2.968" id="svg_4"/>
    <path d="m338.72,24.637l-8.892,8.892l-2.828,0l0,-2.829l8.89,-8.89l2.83,2.827z" id="svg_5"/>
    <path d="m338.697,17.826l4,0l0,4l-4,0l0,-4z" transform="rotate(-134.99000549316406 340.7030029296875,19.816999435424798) " id="svg_6"/>
   </g>
   <g id="remove">
    <path d="m381,42l18,0l0,-18l-18,0l0,18zm14,-16l2,0l0,14l-2,0l0,-14zm-4,0l2,0l0,14l-2,0l0,-14zm-4,0l2,0l0,14l-2,0l0,-14zm-4,0l2,0l0,14l-2,0l0,-14z" id="svg_7"/>
    <path d="m395,20l0,-4l-10,0l0,4l-6,0l0,2l22,0l0,-2l-6,0zm-2,0l-6,0l0,-2l6,0l0,2z" id="svg_8"/>
   </g>
   <polyline fill="none" stroke="null" stroke-width="null" stroke-opacity="null" fill-opacity="null" opacity="0.5" points="22.54343909465039,33.36469021827257 22.54343909465039,33.36469021827257 22.54343909465039,33.36469021827257 22.54343909465039,33.36469021827257 22.54343909465039,33.36469021827257 22.206969816117443,33.36469021827257 22.206969816117443,33.701159496805516 22.206969816117443,34.03762877533846 22.206969816117443,34.37409805387141 22.206969816117443,34.71056733240435 22.206969816117443,35.0470366109373 22.206969816117443,35.38350588947023 22.206969816117443,35.719975168003174 22.206969816117443,36.05644444653612 22.206969816117443,36.392913725069064 22.206969816117443,36.72938300360201 22.206969816117443,37.738790839200846 22.206969816117443,38.411729396266736 22.206969816117443,38.74819867479968 22.206969816117443,39.08466795333263 22.206969816117443,39.7576065103985 22.54343909465039,40.430545067464394 22.54343909465039,40.76701434599734 " id="svg_11" stroke-linecap="round"/>
   <g id="svg_15">
    <path id="svg_9" d="m20.02806,19.66353l20,0l0,15.28943l-20,0l0,-15.28943z" stroke="null"/>
    <path d="m35.89764,27.66522l-8.892,8.892l-2.828,0l0,-2.829l8.89,-8.89l2.83,2.827z" id="svg_13" transform="rotate(-42.652042388916016 30.037643432617184,30.697721481323246) "/>
   </g>
   <g id="svg_18">
    <path id="svg_16" d="m140.1476,20l20,0l0,15.28943l-20,0l0,-15.28943z" stroke="null" fill="#BBBBBB"/>
    <path d="m156.01718,28.00169l-8.892,8.892l-2.828,0l0,-2.829l8.89,-8.89l2.83,2.827z" id="svg_17" transform="rotate(-43 150.1571807861328,31.03418922424314) " fill="#BBBBBB"/>
   </g>
   <g id="svg_21">
    <path id="svg_19" d="m79.24761,19.66353l20,0l0,20.33647l-20,0l0,-20.33647z" stroke="null"/>
    <rect fill="#ffffff" stroke-width="null" stroke-opacity="null" x="82.098501" y="25.962365" width="13.79524" height="12.449362" id="svg_22" stroke="null"/>
   </g>
   <g id="svg_26">
    <path id="svg_24" d="m200.0443,19.66353l20,0l0,20.33647l-20,0l0,-20.33647z" stroke="null" fill="#DDDDDD"/>
    <rect fill="#BBBBBB" stroke-width="null" stroke-opacity="null" x="202.895193" y="25.962365" width="13.79524" height="12.449362" id="svg_25" stroke="null"/>
   </g>
   <g id="svg_3"/>
  </g>
  <g id="disabled" fill="#bbb">
   <use xlink:href="#edit" id="edit-disabled" y="0" x="120" fill="#BBBBBB"/>
   <use xlink:href="#remove" id="remove-disabled" y="0" x="120" fill="#BBBBBB"/>
  </g>
  <g stroke="null" id="svg_27">
   <path stroke="null" id="svg_23" d="m280.980516,29.10945l-3.068284,8.447909l-16.841411,0l3.168995,-8.452004c0.269506,-0.717391 1.117577,-1.305452 1.883973,-1.305452l13.939222,0c0.766396,0 1.180216,0.589411 0.917506,1.309546zm-20.872112,7.045841l2.82731,-7.538636c0.471015,-1.260541 1.841763,-2.210673 3.188074,-2.210673l12.147814,0c0,-0.77049 -0.623475,-1.393922 -1.393922,-1.393922l-9.757455,0l-1.393922,-2.787844l-5.575689,0c-0.77049,0 -1.393922,0.623475 -1.393922,1.393922l0,11.151377c0,0.755506 0.601652,1.361252 1.351712,1.385776z" fill="#010101"/>
  </g>
 </g>
</svg>